<?xml version="1.0" standalone="no"?>
<!DOCTYPE svg PUBLIC "-//W3C//DTD SVG 20010904//EN"
 "http://www.w3.org/TR/2001/REC-SVG-20010904/DTD/svg10.dtd">
<svg version="1.0" xmlns="http://www.w3.org/2000/svg"
 width="512.000000pt" height="512.000000pt" viewBox="0 0 512.000000 512.000000"
 preserveAspectRatio="xMidYMid meet">
<metadata>
Created by potrace 1.14, written by Peter Selinger 2001-2017
</metadata>
<g transform="translate(0.000000,512.000000) scale(0.100000,-0.100000)"
fill="#000000" stroke="none">
<path d="M28 3374 c-5 -4 -8 -252 -8 -552 l0 -544 268 4 c296 5 318 9 447 76
254 133 348 455 213 729 -39 80 -142 179 -230 222 -116 56 -160 63 -433 68
-137 3 -253 2 -257 -3z m401 -64 c169 -22 281 -114 342 -280 21 -57 24 -83 24
-200 0 -114 -3 -145 -23 -200 -44 -129 -124 -215 -242 -261 -42 -17 -85 -23
-182 -27 l-128 -5 0 492 0 491 68 0 c37 0 101 -5 141 -10z"/>
<path d="M1940 2831 l0 -551 193 0 c211 0 289 12 380 55 60 28 131 97 153 150
20 48 17 141 -5 191 -36 78 -134 149 -240 173 -47 10 -65 21 -35 21 31 0 127
49 162 83 50 47 72 97 72 162 0 70 -24 119 -86 174 -78 69 -141 83 -386 89
l-208 4 0 -551z m364 465 c48 -20 92 -77 105 -136 14 -65 14 -66 -4 -128 -29
-96 -117 -150 -230 -140 l-40 3 -3 200 c-1 110 0 206 3 214 4 11 19 12 72 7
36 -4 80 -13 97 -20z m48 -494 c118 -58 161 -229 88 -349 -44 -73 -149 -118
-257 -111 l-48 3 -3 244 -2 243 87 -4 c67 -2 100 -9 135 -26z"/>
<path d="M3620 2830 l0 -550 95 0 95 0 0 550 0 550 -95 0 -95 0 0 -550z"/>
<path d="M3910 2830 l0 -550 95 0 95 0 0 550 0 550 -95 0 -95 0 0 -550z"/>
<path d="M3010 3084 c-204 -55 -318 -265 -269 -496 57 -268 340 -385 617 -253
65 31 94 57 79 71 -3 3 -40 -11 -82 -32 -65 -32 -88 -38 -158 -42 -72 -3 -88
-1 -126 20 -84 45 -141 170 -141 307 l0 51 280 0 280 0 0 45 c0 57 -29 140
-68 197 -82 119 -255 174 -412 132z m167 -63 c63 -29 102 -98 117 -208 l6 -43
-186 0 -186 0 6 48 c9 63 60 166 93 187 56 37 93 41 150 16z"/>
<path d="M4460 3085 c-114 -32 -211 -119 -250 -223 -26 -70 -37 -199 -21 -271
58 -273 339 -389 619 -256 65 31 94 57 79 71 -3 3 -40 -11 -82 -32 -65 -32
-88 -38 -158 -42 -72 -3 -88 -1 -127 20 -83 44 -140 170 -140 307 l0 51 280 0
280 0 0 43 c0 58 -31 147 -71 203 -35 47 -111 103 -169 123 -59 20 -179 23
-240 6z m167 -64 c63 -29 102 -98 117 -208 l6 -43 -185 0 -185 0 0 23 c0 67
53 181 100 214 50 35 91 39 147 14z"/>
<path d="M1341 3074 c-52 -14 -124 -49 -165 -80 -15 -10 -17 -17 -9 -25 8 -8
23 -4 55 14 96 56 217 74 289 44 50 -21 95 -73 108 -122 10 -40 16 -195 7
-195 -2 0 -28 11 -59 25 -84 37 -167 55 -251 55 -121 0 -200 -44 -242 -134
-48 -103 -22 -243 57 -310 55 -47 94 -58 183 -54 87 3 167 34 260 97 25 17 47
31 50 31 3 0 6 -31 6 -70 l0 -70 95 0 95 0 -6 298 c-6 345 -9 358 -86 427 -87
78 -247 107 -387 69z m209 -410 l80 -27 0 -81 0 -81 -50 -33 c-130 -85 -265
-88 -329 -6 -27 35 -44 98 -36 135 9 38 51 88 90 105 51 22 156 17 245 -12z"/>
</g>
</svg>
